<svg xmlns="http://www.w3.org/2000/svg" viewBox="0 0 1280 1280"><rect width="1280" height="1280" fill="#000"/><path fill="#fff" fill-rule="evenodd" d="M703 1152 688 1188 696 1188 698 1182 714 1182 718 1188 724 1188 710 1152ZM706 1162 712 1174 710 1176 702 1174ZM650 1151 649 1188 656 1188 657 1166 678 1188 681 1188 682 1152 674 1152 674 1174ZM616 1151 615 1188 641 1188 641 1182 622 1180 623 1172 636 1172 636 1166 622 1165 622 1158 641 1158 642 1152ZM580 1151 580 1188 587 1187 587 1174 593 1172 602 1188 610 1188 602 1173 607 1168 608 1164 606 1154 600 1152ZM587 1158 599 1158 602 1160 602 1163 599 1166 588 1166ZM552 1152 538 1188 545 1188 548 1182 564 1182 567 1188 573 1188 560 1152ZM556 1162 562 1174 552 1176 550 1174ZM634 576 574 594 503 621 412 660 268 724 437 670 526 645ZM1022 346 508 554 522 554 644 548 770 493 836 466 713 554 534 676 691 642 646 693 509 818 394 915 699 725 850 550 758 574 756 572 806 525 856 480Z"/></svg>
